<svg
  width="2295"
  height="1570"
  viewBox="0 0 2295 1570"
  fill="none"
  xmlns="http://www.w3.org/2000/svg"
>
<g clip-path="url(#clip0_140_55)">
<rect width="2295" height="1570" fill="" />
<path
      d="M314.458 1563.96C339.589 1519.49 368.739 1470.07 420.825 1454.28C435.308 1449.9 450.493 1448.33 465.565 1449.66C470.315 1450.07 469.129 1457.39 464.387 1456.98C439.124 1454.88 413.91 1461.56 392.99 1475.87C372.858 1489.57 357.184 1508.62 343.917 1528.83C335.791 1541.2 328.512 1554.1 321.231 1566.98C318.905 1571.1 312.104 1568.13 314.458 1563.96V1563.96Z"
      fill="#F2F2F2"
    />
<path
      d="M1350.54 1151.77C1668.6 1151.77 1926.43 893.939 1926.43 575.886C1926.43 257.833 1668.6 0 1350.54 0C1032.48 0 774.64 257.833 774.64 575.886C774.64 893.939 1032.48 1151.77 1350.54 1151.77Z"
      fill="#F2F1F1"
    />
<path
      d="M324.804 1392.37C340.446 1397.87 357.242 1399.25 373.571 1396.37C389.901 1393.5 405.215 1386.46 418.037 1375.95C450.693 1348.54 460.931 1303.39 469.262 1261.58L493.903 1137.91L442.315 1173.43C405.216 1198.97 367.282 1225.33 341.595 1262.33C315.908 1299.33 304.695 1349.84 325.334 1389.88"
      fill="#E6E6E6"
    />
<path
      d="M329.213 1542.1C323.992 1504.07 318.623 1465.55 322.286 1427.11C325.538 1392.97 335.954 1359.63 357.158 1332.29C368.413 1317.8 382.108 1305.39 397.628 1295.61C401.675 1293.06 405.4 1299.47 401.371 1302.02C374.517 1318.99 353.746 1344.05 342.054 1373.59C329.14 1406.43 327.066 1442.24 329.291 1477.13C330.637 1498.23 333.489 1519.19 336.363 1540.13C336.59 1541.07 336.449 1542.07 335.968 1542.92C335.487 1543.77 334.703 1544.4 333.774 1544.69C332.826 1544.94 331.816 1544.82 330.962 1544.33C330.108 1543.85 329.48 1543.04 329.213 1542.1V1542.1Z"
      fill="#F2F2F2"
    />
<path
      d="M674.754 1489.72C680.86 1496.93 688.721 1502.45 697.579 1505.74C706.437 1509.03 715.994 1509.99 725.329 1508.52C749.285 1504.45 767.336 1485.2 783.484 1467.05L831.248 1413.35L795.644 1415.94C770.04 1417.81 743.79 1419.83 720.495 1430.62C697.199 1441.41 677.127 1463.01 675.734 1488.64"
      fill="#E6E6E6"
    />
<path
      d="M633.762 1564.61C642.158 1544.4 650.622 1523.91 663.504 1506.07C674.944 1490.22 689.676 1476.83 707.983 1469.5C717.692 1465.62 728.003 1463.47 738.452 1463.14C741.178 1463.05 741.161 1467.27 738.447 1467.36C720.351 1467.97 702.915 1474.3 688.651 1485.45C672.834 1497.88 661.493 1514.89 652.529 1532.68C647.108 1543.45 642.468 1554.58 637.846 1565.7C637.685 1566.23 637.328 1566.68 636.847 1566.96C636.367 1567.23 635.799 1567.32 635.258 1567.19C634.719 1567.05 634.259 1566.69 633.979 1566.21C633.699 1565.72 633.621 1565.15 633.762 1564.61H633.762Z"
      fill="#F2F2F2"
    />
<path
      d="M379.505 1474.8C386.214 1485 395.436 1493.29 406.282 1498.89C417.128 1504.49 429.234 1507.2 441.432 1506.76C472.78 1505.27 498.915 1483.4 522.441 1462.62L592.026 1401.19L545.972 1398.98C512.853 1397.4 478.879 1395.92 447.334 1406.13C415.789 1416.35 386.697 1440.93 380.929 1473.58"
      fill="#E6E6E6"
    />
<mask id="path-8-inside-1_140_55" fill="white">
<path
        d="M1399.78 804.959C1449.75 777.495 1511.94 783.007 1565.78 801.784C1619.62 820.561 1668.41 851.323 1720.69 874.076C1880.46 943.604 2073.02 932.393 2223.64 844.793C2237.89 877.928 2222.61 915.828 2205.82 947.75C2189.03 979.672 2169.9 1014.27 2176.81 1049.67C2185.66 1094.97 2233.15 1122.13 2252.39 1164.08C2270.66 1203.9 2260.86 1250.66 2246.84 1292.17C2232.83 1333.68 2214.64 1375.5 2217.02 1419.25C2219.4 1463 2251.19 1509.26 2295 1509.29C2230.07 1519.38 2163.86 1529.47 2098.97 1519.14C2034.09 1508.8 1969.54 1474.48 1939.41 1416.09C1924.35 1386.9 1918.54 1353.34 1901.25 1325.42C1871.79 1277.87 1815.26 1255.5 1761.92 1238.65C1708.58 1221.79 1651.49 1205.56 1613.94 1164.1C1578.15 1124.6 1566.82 1069.57 1547.86 1019.76C1515.93 936.367 1460.47 864.044 1388.22 811.573"
      />
</mask>
<path
      d="M1399.78 804.959C1449.75 777.495 1511.94 783.007 1565.78 801.784C1619.62 820.561 1668.41 851.323 1720.69 874.076C1880.46 943.604 2073.02 932.393 2223.64 844.793C2237.89 877.928 2222.61 915.828 2205.82 947.75C2189.03 979.672 2169.9 1014.27 2176.81 1049.67C2185.66 1094.97 2233.15 1122.13 2252.39 1164.08C2270.66 1203.9 2260.86 1250.66 2246.84 1292.17C2232.83 1333.68 2214.64 1375.5 2217.02 1419.25C2219.4 1463 2251.19 1509.26 2295 1509.29C2230.07 1519.38 2163.86 1529.47 2098.97 1519.14C2034.09 1508.8 1969.54 1474.48 1939.41 1416.09C1924.35 1386.9 1918.54 1353.34 1901.25 1325.42C1871.79 1277.87 1815.26 1255.5 1761.92 1238.65C1708.58 1221.79 1651.49 1205.56 1613.94 1164.1C1578.15 1124.6 1566.82 1069.57 1547.86 1019.76C1515.93 936.367 1460.47 864.044 1388.22 811.573"
      fill="#6D8C46"
    />
<path
      d="M1720.69 874.076L1721.09 873.159L1721.09 873.159L1720.69 874.076ZM2223.64 844.793L2224.56 844.398L2224.12 843.361L2223.14 843.929L2223.64 844.793ZM2176.81 1049.67L2177.79 1049.48L2177.79 1049.48L2176.81 1049.67ZM2252.39 1164.08L2251.48 1164.49L2251.48 1164.49L2252.39 1164.08ZM2295 1509.29L2295.15 1510.28L2295 1508.29L2295 1509.29ZM1939.41 1416.09L1938.52 1416.55L1938.52 1416.55L1939.41 1416.09ZM1901.25 1325.42L1900.4 1325.95L1900.4 1325.95L1901.25 1325.42ZM1613.94 1164.1L1614.68 1163.43L1614.68 1163.43L1613.94 1164.1ZM1547.86 1019.76L1548.79 1019.4L1548.79 1019.4L1547.86 1019.76ZM1400.26 805.835C1449.88 778.567 1511.74 783.995 1565.45 802.728L1566.11 800.839C1512.15 782.019 1449.63 776.423 1399.3 804.082L1400.26 805.835ZM1565.45 802.728C1592.31 812.093 1617.91 824.452 1643.37 837.331C1668.81 850.201 1694.12 863.601 1720.29 874.992L1721.09 873.159C1694.99 861.797 1669.76 848.44 1644.27 835.546C1618.8 822.662 1593.1 810.251 1566.11 800.839L1565.45 802.728ZM1720.29 874.992C1880.35 944.648 2073.25 933.417 2224.15 845.658L2223.14 843.929C2072.8 931.368 1880.57 942.56 1721.09 873.159L1720.29 874.992ZM2222.73 845.188C2229.74 861.497 2229.5 879.022 2225.4 896.497C2221.29 913.98 2213.32 931.347 2204.94 947.284L2206.71 948.215C2215.11 932.231 2223.18 914.686 2227.34 896.955C2231.51 879.216 2231.8 861.224 2224.56 844.398L2222.73 845.188ZM2204.94 947.284C2196.55 963.223 2187.53 979.925 2181.49 997.073C2175.44 1014.23 2172.33 1031.92 2175.83 1049.86L2177.79 1049.48C2174.39 1032.02 2177.39 1014.71 2183.37 997.739C2189.36 980.757 2198.3 964.199 2206.71 948.215L2204.94 947.284ZM2175.83 1049.86C2180.31 1072.8 2194.56 1091.09 2209.95 1108.78C2225.39 1126.54 2241.94 1143.68 2251.48 1164.49L2253.3 1163.66C2243.6 1142.52 2226.78 1125.1 2211.46 1107.47C2196.07 1089.78 2182.16 1071.84 2177.79 1049.48L2175.83 1049.86ZM2251.48 1164.49C2269.58 1203.93 2259.9 1250.36 2245.89 1291.85L2247.79 1292.49C2261.81 1250.96 2271.74 1203.86 2253.3 1163.66L2251.48 1164.49ZM2245.89 1291.85C2231.92 1333.23 2213.63 1375.31 2216.02 1419.3L2218.02 1419.2C2215.65 1375.7 2233.73 1334.13 2247.79 1292.49L2245.89 1291.85ZM2216.02 1419.3C2217.23 1441.38 2225.84 1464.09 2239.7 1481.29C2253.55 1498.5 2272.71 1510.27 2295 1510.29L2295 1508.29C2273.47 1508.27 2254.84 1496.9 2241.25 1480.04C2227.67 1463.16 2219.2 1440.86 2218.02 1419.2L2216.02 1419.3ZM2294.85 1508.3C2229.89 1518.4 2163.84 1528.46 2099.13 1518.15L2098.82 1520.12C2163.89 1530.49 2230.25 1520.36 2295.15 1510.28L2294.85 1508.3ZM2099.13 1518.15C2034.44 1507.84 1970.23 1473.64 1940.3 1415.63L1938.52 1416.55C1968.84 1475.31 2033.74 1509.75 2098.82 1520.12L2099.13 1518.15ZM1940.3 1415.63C1932.81 1401.11 1927.62 1385.5 1922.11 1369.95C1916.61 1354.42 1910.81 1338.96 1902.1 1324.9L1900.4 1325.95C1908.98 1339.81 1914.73 1355.09 1920.22 1370.61C1925.71 1386.11 1930.95 1401.88 1938.52 1416.55L1940.3 1415.63ZM1902.1 1324.9C1872.43 1276.99 1815.54 1254.54 1762.22 1237.7L1761.62 1239.6C1814.98 1256.46 1871.16 1278.74 1900.4 1325.95L1902.1 1324.9ZM1762.22 1237.7C1708.79 1220.81 1652.01 1204.64 1614.68 1163.43L1613.19 1164.77C1650.97 1206.47 1708.36 1222.78 1761.62 1239.6L1762.22 1237.7ZM1614.68 1163.43C1596.9 1143.81 1585.18 1120.31 1575.52 1095.43C1570.69 1083 1566.39 1070.24 1562.1 1057.45C1557.81 1044.68 1553.54 1031.88 1548.79 1019.4L1546.92 1020.11C1551.65 1032.54 1555.91 1045.3 1560.2 1058.09C1564.49 1070.87 1568.81 1083.67 1573.66 1096.16C1583.35 1121.13 1595.18 1144.89 1613.19 1164.77L1614.68 1163.43ZM1548.79 1019.4C1516.79 935.829 1461.21 863.349 1388.81 810.764L1387.63 812.382C1459.72 864.74 1515.06 936.906 1546.92 1020.11L1548.79 1019.4Z"
      fill="black"
      mask="url(#path-8-inside-1_140_55)"
    />
<path
      d="M1457.68 597.993C1440.14 589.833 1418.6 587.158 1400.75 594.741C1382.91 602.323 1370.74 621.759 1376.51 638.96C1379.13 646.758 1385.08 654.428 1382.76 662.304C1380.98 668.367 1374.74 672.369 1368.62 675.215C1362.5 678.061 1355.8 680.454 1351.37 685.254C1346.94 690.054 1346.02 698.317 1351.55 702.04C1353.37 703.266 1355.65 703.848 1357.42 705.14C1358.92 706.364 1360.01 708.027 1360.53 709.897C1361.04 711.768 1360.96 713.753 1360.3 715.576C1358.82 719.243 1356.39 722.445 1353.25 724.846C1346.97 730.261 1338.67 736.459 1340.62 744.146C1341.34 746.2 1342.55 748.05 1344.14 749.538C1345.73 751.026 1347.66 752.108 1349.76 752.692C1354.12 753.949 1358.64 754.546 1363.17 754.463L1548.46 760.3C1554.58 760.759 1560.73 760.416 1566.76 759.278C1569.69 758.743 1572.48 757.61 1574.95 755.95C1577.42 754.289 1579.52 752.136 1581.12 749.626C1584.67 743.058 1582.34 734.968 1577.96 728.835C1573.58 722.702 1567.38 717.865 1562.25 712.233C1557.13 706.602 1552.94 699.572 1553.84 692.293C1554.56 686.467 1558.41 681.431 1561.16 676.137C1563.92 670.844 1565.52 664.228 1561.95 659.358C1556.92 652.495 1544.83 653.116 1539.11 646.721C1534.79 641.895 1535.62 634.948 1535.19 628.724C1534.16 613.755 1523.79 599.617 1509.04 593.053C1501.54 589.832 1493.38 588.442 1485.23 588.997C1477.09 589.551 1469.19 592.035 1462.2 596.243L1457.68 597.993Z"
      fill="#2F2E41"
    />
<path
      d="M1340.59 1537.59L1311.57 1528.87L1331.39 1412.78L1374.22 1425.65L1340.59 1537.59Z"
      fill="#CBAE76"
    />
<path
      d="M1339.54 1567.94L1245.97 1539.83L1246.32 1538.64C1247.76 1533.86 1250.13 1529.41 1253.28 1525.54C1256.44 1521.67 1260.33 1518.46 1264.73 1516.1C1269.13 1513.73 1273.95 1512.25 1278.92 1511.75C1283.88 1511.25 1288.9 1511.73 1293.69 1513.17L1293.69 1513.17L1350.84 1530.34L1339.54 1567.94Z"
      fill="#2F2E41"
    />
<path
      d="M1614.44 1538.57L1584.14 1538.57L1569.73 1421.69L1614.45 1421.69L1614.44 1538.57Z"
      fill="#CBAE76"
    />
<path
      d="M1622.17 1567.94L1524.46 1567.94V1566.7C1524.46 1561.71 1525.45 1556.76 1527.36 1552.15C1529.27 1547.54 1532.07 1543.34 1535.6 1539.81C1539.13 1536.28 1543.33 1533.48 1547.94 1531.57C1552.56 1529.66 1557.5 1528.67 1562.49 1528.67H1562.5L1622.17 1528.68L1622.17 1567.94Z"
      fill="#2F2E41"
    />
<path
      d="M1572.38 1450.17C1569.74 1450.17 1567.18 1449.22 1565.17 1447.51C1563.16 1445.79 1561.82 1443.42 1561.4 1440.81L1516.41 1160.14C1516.11 1158.28 1515.21 1156.57 1513.86 1155.27C1512.5 1153.97 1510.75 1153.14 1508.88 1152.92C1507.01 1152.7 1505.12 1153.1 1503.5 1154.05C1501.87 1155 1500.6 1156.45 1499.88 1158.19L1383.31 1438.81C1382.23 1441.4 1380.2 1443.49 1377.65 1444.65C1375.09 1445.82 1372.19 1445.98 1369.52 1445.1L1327.42 1431.06C1324.8 1430.2 1322.59 1428.38 1321.24 1425.98C1319.88 1423.58 1319.47 1420.75 1320.09 1418.06L1415.62 995.361C1416.08 993.325 1417.11 991.46 1418.58 989.979C1420.06 988.497 1421.92 987.458 1423.95 986.978L1552.06 957.239C1553.64 956.882 1555.27 956.866 1556.85 957.195C1558.43 957.523 1559.92 958.187 1561.23 959.141C1645.58 1020.43 1638.46 1220.69 1622.74 1438.13C1622.54 1440.86 1621.35 1443.41 1619.39 1445.31C1617.44 1447.22 1614.85 1448.33 1612.12 1448.45L1572.87 1450.16C1572.7 1450.16 1572.54 1450.17 1572.38 1450.17Z"
      fill="#2F2C5B"
    />
<path
      d="M1464.54 758.864C1498.06 758.864 1525.24 731.685 1525.24 698.158C1525.24 664.632 1498.06 637.453 1464.54 637.453C1431.01 637.453 1403.83 664.632 1403.83 698.158C1403.83 731.685 1431.01 758.864 1464.54 758.864Z"
      fill="#CBAE76"
    />
<path
      d="M1467.16 1012.79C1452.59 1012.69 1438.22 1009.37 1425.08 1003.06L1424.63 1002.85L1424.45 1002.39L1370 861.317L1368.96 836.806C1368.62 828.609 1369.99 820.431 1373 812.797C1376 805.163 1380.57 798.243 1386.41 792.483C1392.26 786.723 1399.24 782.25 1406.92 779.352C1414.59 776.454 1422.79 775.196 1430.98 775.658L1488.79 778.914C1503.72 779.763 1517.77 786.27 1528.07 797.112C1538.37 807.953 1544.16 822.314 1544.24 837.269C1545.74 840.154 1556.41 862.707 1535.51 883.897C1534.73 888.722 1527.42 938.883 1555 966.467L1555.78 967.242L1555.1 968.103C1554.66 968.663 1519.24 1012.78 1467.16 1012.79Z"
      fill="#A6D183"
    />
<path
      d="M1548.33 1023.43C1551.75 1022.19 1554.85 1020.22 1557.42 1017.65C1559.99 1015.08 1561.97 1011.98 1563.21 1008.57C1564.46 1005.16 1564.94 1001.51 1564.62 997.891C1564.3 994.272 1563.19 990.766 1561.37 987.62L1619.11 920.78L1573.59 914.856L1525.75 979.237C1520.66 982.643 1517.01 987.795 1515.47 993.716C1513.94 999.638 1514.63 1005.92 1517.41 1011.36C1520.19 1016.81 1524.88 1021.05 1530.58 1023.27C1536.28 1025.5 1542.59 1025.55 1548.33 1023.43V1023.43Z"
      fill="#A0616A"
    />
<path
      d="M1584.43 971.84C1582.26 971.839 1580.14 971.203 1578.33 970.01L1549.77 951.282C1547.37 949.714 1545.67 947.278 1545.03 944.484C1544.38 941.69 1544.84 938.755 1546.31 936.293L1566.99 901.563C1568.1 899.684 1568.81 897.59 1569.06 895.417C1569.32 893.245 1569.11 891.045 1568.45 888.96C1567.79 886.875 1566.69 884.953 1565.24 883.321C1563.79 881.688 1562 880.382 1560.01 879.487L1500.62 852.862C1493.31 849.546 1487.35 843.849 1483.71 836.702C1480.07 829.556 1478.96 821.384 1480.57 813.526V813.526C1481.68 808.227 1484 803.255 1487.34 798.997C1490.69 794.74 1494.97 791.312 1499.85 788.979C1504.74 786.647 1510.1 785.473 1515.51 785.549C1520.93 785.625 1526.25 786.949 1531.07 789.418L1621.17 835.585C1627.24 838.699 1632.58 843.091 1636.8 848.458C1641.02 853.825 1644.04 860.042 1645.64 866.682C1647.23 873.322 1647.38 880.229 1646.06 886.929C1644.74 893.63 1641.98 899.966 1637.99 905.504L1593.45 967.22C1592.42 968.65 1591.06 969.816 1589.5 970.619C1587.93 971.423 1586.19 971.841 1584.43 971.84Z"
      fill="#6D8C46"
    />
<path
      d="M1402.43 689.528C1421.6 687.988 1437.52 668.837 1435.53 649.708C1435.3 657.593 1437.98 665.285 1443.06 671.321C1448.14 677.358 1455.26 681.317 1463.06 682.446C1471.86 683.415 1481.5 680.755 1489.15 685.191C1497.63 690.105 1500.34 702.037 1509.18 706.281C1517.71 710.381 1528.55 704.789 1532.76 696.312C1536.98 687.835 1535.95 677.651 1533.15 668.605C1529.17 655.705 1521.91 644.056 1512.09 634.79C1502.27 625.524 1490.22 618.958 1477.11 615.73C1464 612.501 1450.28 612.721 1437.28 616.367C1424.28 620.013 1412.44 626.961 1402.92 636.536C1394.86 644.644 1388.46 654.978 1387.42 666.364C1386.38 677.75 1391.66 690.104 1401.89 695.219L1402.43 689.528Z"
      fill="#2F2E41"
    />
<path
      d="M1261.2 521.373C1264.4 523.097 1267.18 525.501 1269.35 528.416C1271.52 531.332 1273.02 534.687 1273.75 538.246C1274.48 541.805 1274.43 545.482 1273.58 549.016C1272.74 552.55 1271.13 555.857 1268.87 558.703L1316.23 633.259L1270.34 632.472L1232.4 561.793C1227.87 557.681 1225.01 552.051 1224.35 545.969C1223.7 539.886 1225.3 533.775 1228.85 528.793C1232.4 523.81 1237.65 520.303 1243.61 518.935C1249.58 517.568 1255.83 518.435 1261.2 521.373V521.373Z"
      fill="#A0616A"
    />
<path
      d="M1299.37 574.462L1360.35 718.562L1424.29 826.977C1426.99 831.554 1428.61 836.684 1429.04 841.98C1429.47 847.276 1428.68 852.6 1426.75 857.549C1424.82 862.498 1421.78 866.943 1417.88 870.549C1413.98 874.154 1409.31 876.826 1404.22 878.362C1396.15 880.756 1387.5 880.186 1379.81 876.755C1372.13 873.324 1365.93 867.259 1362.32 859.654L1239.09 596.347C1238.42 594.917 1238.07 593.36 1238.05 591.781C1238.03 590.202 1238.34 588.636 1238.97 587.188C1239.6 585.741 1240.54 584.444 1241.71 583.384C1242.88 582.325 1244.26 581.527 1245.77 581.044L1285.72 568.209C1286.48 567.965 1287.26 567.802 1288.05 567.721C1290.41 567.483 1292.79 568.01 1294.82 569.223C1296.86 570.437 1298.45 572.274 1299.37 574.462Z"
      fill="#6D8C46"
    />
<path
      d="M1871.05 1570H2.47166C1.81613 1570 1.18746 1569.74 0.72393 1569.28C0.260404 1568.81 0 1568.18 0 1567.53C0 1566.87 0.260404 1566.24 0.72393 1565.78C1.18746 1565.32 1.81613 1565.06 2.47166 1565.06H1871.05C1871.7 1565.06 1872.33 1565.32 1872.79 1565.78C1873.26 1566.24 1873.52 1566.87 1873.52 1567.53C1873.52 1568.18 1873.26 1568.81 1872.79 1569.28C1872.33 1569.74 1871.7 1570 1871.05 1570Z"
      fill="#CCCCCC"
    />
<path
      d="M1477.7 267.46V470.132C1477.7 470.787 1477.44 471.416 1476.98 471.88C1476.51 472.343 1475.89 472.604 1475.23 472.604C1474.57 472.604 1473.95 472.343 1473.48 471.88C1473.02 471.416 1472.76 470.787 1472.76 470.132V267.46C1472.76 266.804 1473.02 266.176 1473.48 265.712C1473.95 265.248 1474.57 264.988 1475.23 264.988C1475.89 264.988 1476.51 265.248 1476.98 265.712C1477.44 266.176 1477.7 266.804 1477.7 267.46V267.46Z"
      fill="#CCCCCC"
    />
<path
      d="M1692.31 439.397L1622.4 509.305C1621.93 509.767 1621.3 510.026 1620.65 510.025C1620 510.024 1619.37 509.764 1618.9 509.301C1618.44 508.838 1618.18 508.211 1618.18 507.556C1618.18 506.902 1618.44 506.274 1618.9 505.81L1688.81 435.902C1689.04 435.672 1689.31 435.489 1689.61 435.364C1689.91 435.239 1690.23 435.175 1690.56 435.174C1690.88 435.174 1691.21 435.238 1691.51 435.362C1691.81 435.486 1692.08 435.668 1692.31 435.898C1692.54 436.128 1692.72 436.401 1692.85 436.701C1692.97 437.002 1693.03 437.324 1693.03 437.649C1693.03 437.974 1692.97 438.295 1692.84 438.595C1692.72 438.896 1692.54 439.168 1692.31 439.397V439.397Z"
      fill="#CCCCCC"
    />
<path
      d="M1258.16 439.397L1328.06 509.305C1328.53 509.769 1329.16 510.029 1329.81 510.029C1330.47 510.029 1331.1 509.769 1331.56 509.305C1332.02 508.842 1332.28 508.213 1332.28 507.558C1332.28 506.902 1332.02 506.273 1331.56 505.81L1261.65 435.902C1261.42 435.672 1261.15 435.489 1260.85 435.364C1260.55 435.239 1260.23 435.175 1259.9 435.174C1259.58 435.174 1259.26 435.238 1258.95 435.362C1258.65 435.486 1258.38 435.668 1258.15 435.898C1257.92 436.128 1257.74 436.401 1257.62 436.701C1257.49 437.002 1257.43 437.324 1257.43 437.649C1257.43 437.974 1257.49 438.295 1257.62 438.595C1257.74 438.896 1257.93 439.168 1258.16 439.397V439.397Z"
      fill="#CCCCCC"
    />
</g>
<defs>
<clipPath id="clip0_140_55">
<rect width="2295" height="1570" fill="" />
</clipPath>
</defs>
</svg>
