<svg
  width="22"
  height="28"
  viewBox="0 0 22 28"
  fill="none"
  xmlns="http://www.w3.org/2000/svg"
>
<path
    d="M5 6V8H3.5C2.57174 8 1.6815 8.36875 1.02513 9.02513C0.368749 9.6815 0 10.5717 0 11.5V24.5C0 25.4283 0.368749 26.3185 1.02513 26.9749C1.6815 27.6313 2.57174 28 3.5 28H18.5C19.4283 28 20.3185 27.6313 20.9749 26.9749C21.6313 26.3185 22 25.4283 22 24.5V11.5C22 10.5717 21.6313 9.6815 20.9749 9.02513C20.3185 8.36875 19.4283 8 18.5 8H17V6C17 4.4087 16.3679 2.88258 15.2426 1.75736C14.1174 0.632141 12.5913 0 11 0C9.4087 0 7.88258 0.632141 6.75736 1.75736C5.63214 2.88258 5 4.4087 5 6V6ZM11 2C12.0609 2 13.0783 2.42143 13.8284 3.17157C14.5786 3.92172 15 4.93913 15 6V8H7V6C7 4.93913 7.42143 3.92172 8.17157 3.17157C8.92172 2.42143 9.93913 2 11 2V2ZM11 20C10.4696 20 9.96086 19.7893 9.58579 19.4142C9.21071 19.0391 9 18.5304 9 18C9 17.4696 9.21071 16.9609 9.58579 16.5858C9.96086 16.2107 10.4696 16 11 16C11.5304 16 12.0391 16.2107 12.4142 16.5858C12.7893 16.9609 13 17.4696 13 18C13 18.5304 12.7893 19.0391 12.4142 19.4142C12.0391 19.7893 11.5304 20 11 20V20Z"
    fill="black"
  />
</svg>
