<svg width="39" height="54" viewBox="0 0 39 54" fill="none" xmlns="http://www.w3.org/2000/svg">
<path d="M0 54H39V44.3571C38.9959 40.778 37.5564 37.3466 34.9974 34.8157C32.4385 32.2849 28.9689 30.8612 25.35 30.8571H13.65C10.0311 30.8612 6.56153 32.2849 4.00255 34.8157C1.44358 37.3466 0.00412885 40.778 0 44.3571V54ZM5.85 13.5C5.85 16.17 6.65056 18.7801 8.15044 21.0002C9.65032 23.2203 11.7822 24.9506 14.2764 25.9724C16.7706 26.9942 19.5151 27.2615 22.163 26.7406C24.8108 26.2197 27.243 24.934 29.152 23.0459C31.061 21.1579 32.361 18.7525 32.8877 16.1337C33.4144 13.515 33.1441 10.8006 32.111 8.33377C31.0778 5.86697 29.3283 3.75856 27.0835 2.27516C24.8388 0.791761 22.1997 0 19.5 0C15.8798 0 12.4079 1.42232 9.84799 3.95406C7.28812 6.4858 5.85 9.91958 5.85 13.5V13.5Z" fill="black"/>
</svg>
